<mxfile host="app.diagrams.net" modified="2023-03-31T17:47:26.967Z" agent="Mozilla/5.0 (Windows NT 10.0; Win64; x64) AppleWebKit/537.36 (KHTML, like Gecko) Chrome/111.0.0.0 Safari/537.36" etag="eID6OZllsW9MZ76NfSQf" version="21.1.2" type="device">
  <diagram name="Página-1" id="1yFe_AGwRMUUmQc7_iIi">
    <mxGraphModel dx="926" dy="509" grid="1" gridSize="10" guides="1" tooltips="1" connect="1" arrows="1" fold="1" page="1" pageScale="1" pageWidth="827" pageHeight="1169" math="0" shadow="0">
      <root>
        <mxCell id="0" />
        <mxCell id="1" parent="0" />
        <mxCell id="7aWB_8RqzPhK11Xq14SU-1" value="" style="rounded=1;whiteSpace=wrap;html=1;fontSize=36;" parent="1" vertex="1">
          <mxGeometry x="124" y="80" width="580" height="80" as="geometry" />
        </mxCell>
        <mxCell id="7aWB_8RqzPhK11Xq14SU-2" value="&lt;span style=&quot;font-size: 36px;&quot;&gt;&lt;b&gt;Diagrama - Exercício 3, Slide 2&lt;/b&gt;&lt;/span&gt;" style="text;html=1;strokeColor=none;fillColor=none;align=center;verticalAlign=middle;whiteSpace=wrap;rounded=0;" parent="1" vertex="1">
          <mxGeometry x="128" y="60" width="576" height="120" as="geometry" />
        </mxCell>
        <mxCell id="7aWB_8RqzPhK11Xq14SU-3" style="edgeStyle=orthogonalEdgeStyle;rounded=0;orthogonalLoop=1;jettySize=auto;html=1;" parent="1" source="7aWB_8RqzPhK11Xq14SU-7" target="7aWB_8RqzPhK11Xq14SU-9" edge="1">
          <mxGeometry relative="1" as="geometry" />
        </mxCell>
        <mxCell id="7aWB_8RqzPhK11Xq14SU-4" style="edgeStyle=orthogonalEdgeStyle;rounded=0;orthogonalLoop=1;jettySize=auto;html=1;entryX=0.5;entryY=1;entryDx=0;entryDy=0;curved=1;" parent="1" source="7aWB_8RqzPhK11Xq14SU-7" target="7aWB_8RqzPhK11Xq14SU-18" edge="1">
          <mxGeometry relative="1" as="geometry" />
        </mxCell>
        <mxCell id="7aWB_8RqzPhK11Xq14SU-5" style="edgeStyle=orthogonalEdgeStyle;rounded=0;orthogonalLoop=1;jettySize=auto;html=1;entryX=0.5;entryY=1;entryDx=0;entryDy=0;curved=1;" parent="1" source="7aWB_8RqzPhK11Xq14SU-7" target="7aWB_8RqzPhK11Xq14SU-15" edge="1">
          <mxGeometry relative="1" as="geometry" />
        </mxCell>
        <mxCell id="7aWB_8RqzPhK11Xq14SU-6" style="edgeStyle=orthogonalEdgeStyle;rounded=0;orthogonalLoop=1;jettySize=auto;html=1;entryX=0.5;entryY=0;entryDx=0;entryDy=0;curved=1;" parent="1" source="7aWB_8RqzPhK11Xq14SU-7" target="7aWB_8RqzPhK11Xq14SU-17" edge="1">
          <mxGeometry relative="1" as="geometry" />
        </mxCell>
        <mxCell id="7aWB_8RqzPhK11Xq14SU-7" value="Autor" style="whiteSpace=wrap;html=1;align=center;" parent="1" vertex="1">
          <mxGeometry x="128" y="410" width="100" height="40" as="geometry" />
        </mxCell>
        <mxCell id="7aWB_8RqzPhK11Xq14SU-9" value="Escreve" style="shape=rhombus;perimeter=rhombusPerimeter;whiteSpace=wrap;html=1;align=center;" parent="1" vertex="1">
          <mxGeometry x="358" y="400" width="120" height="60" as="geometry" />
        </mxCell>
        <mxCell id="7aWB_8RqzPhK11Xq14SU-10" style="edgeStyle=orthogonalEdgeStyle;rounded=0;orthogonalLoop=1;jettySize=auto;html=1;entryX=0.5;entryY=1;entryDx=0;entryDy=0;curved=1;" parent="1" source="7aWB_8RqzPhK11Xq14SU-14" target="7aWB_8RqzPhK11Xq14SU-16" edge="1">
          <mxGeometry relative="1" as="geometry" />
        </mxCell>
        <mxCell id="7aWB_8RqzPhK11Xq14SU-11" style="edgeStyle=orthogonalEdgeStyle;rounded=0;orthogonalLoop=1;jettySize=auto;html=1;entryX=0.5;entryY=1;entryDx=0;entryDy=0;curved=1;" parent="1" source="7aWB_8RqzPhK11Xq14SU-14" target="7aWB_8RqzPhK11Xq14SU-20" edge="1">
          <mxGeometry relative="1" as="geometry" />
        </mxCell>
        <mxCell id="7aWB_8RqzPhK11Xq14SU-12" style="edgeStyle=orthogonalEdgeStyle;rounded=0;orthogonalLoop=1;jettySize=auto;html=1;entryX=0.5;entryY=0;entryDx=0;entryDy=0;curved=1;" parent="1" source="7aWB_8RqzPhK11Xq14SU-14" target="7aWB_8RqzPhK11Xq14SU-19" edge="1">
          <mxGeometry relative="1" as="geometry" />
        </mxCell>
        <mxCell id="7aWB_8RqzPhK11Xq14SU-13" style="edgeStyle=orthogonalEdgeStyle;rounded=0;orthogonalLoop=1;jettySize=auto;html=1;curved=1;" parent="1" source="7aWB_8RqzPhK11Xq14SU-14" target="7aWB_8RqzPhK11Xq14SU-21" edge="1">
          <mxGeometry relative="1" as="geometry" />
        </mxCell>
        <mxCell id="k10pEqMv1U52HA_rd34u-4" style="edgeStyle=orthogonalEdgeStyle;rounded=0;orthogonalLoop=1;jettySize=auto;html=1;entryX=1;entryY=0.5;entryDx=0;entryDy=0;" edge="1" parent="1" source="7aWB_8RqzPhK11Xq14SU-14" target="7aWB_8RqzPhK11Xq14SU-9">
          <mxGeometry relative="1" as="geometry" />
        </mxCell>
        <mxCell id="7aWB_8RqzPhK11Xq14SU-14" value="Livro" style="whiteSpace=wrap;html=1;align=center;" parent="1" vertex="1">
          <mxGeometry x="598" y="410" width="100" height="40" as="geometry" />
        </mxCell>
        <mxCell id="7aWB_8RqzPhK11Xq14SU-15" value="Nacionalidade" style="ellipse;whiteSpace=wrap;html=1;align=center;" parent="1" vertex="1">
          <mxGeometry x="199" y="300" width="100" height="40" as="geometry" />
        </mxCell>
        <mxCell id="7aWB_8RqzPhK11Xq14SU-16" value="Título" style="ellipse;whiteSpace=wrap;html=1;align=center;" parent="1" vertex="1">
          <mxGeometry x="668" y="300" width="100" height="40" as="geometry" />
        </mxCell>
        <mxCell id="7aWB_8RqzPhK11Xq14SU-17" value="CPF" style="ellipse;whiteSpace=wrap;html=1;align=center;fontStyle=4;" parent="1" vertex="1">
          <mxGeometry x="128" y="510" width="100" height="40" as="geometry" />
        </mxCell>
        <mxCell id="7aWB_8RqzPhK11Xq14SU-18" value="Nome" style="ellipse;whiteSpace=wrap;html=1;align=center;" parent="1" vertex="1">
          <mxGeometry x="59" y="300" width="100" height="40" as="geometry" />
        </mxCell>
        <mxCell id="7aWB_8RqzPhK11Xq14SU-19" value="ISBN" style="ellipse;whiteSpace=wrap;html=1;align=center;fontStyle=4;" parent="1" vertex="1">
          <mxGeometry x="539" y="500" width="100" height="40" as="geometry" />
        </mxCell>
        <mxCell id="7aWB_8RqzPhK11Xq14SU-20" value="N° Páginas" style="ellipse;whiteSpace=wrap;html=1;align=center;" parent="1" vertex="1">
          <mxGeometry x="539" y="300" width="100" height="40" as="geometry" />
        </mxCell>
        <mxCell id="7aWB_8RqzPhK11Xq14SU-21" value="Editora" style="ellipse;whiteSpace=wrap;html=1;align=center;" parent="1" vertex="1">
          <mxGeometry x="668" y="500" width="100" height="40" as="geometry" />
        </mxCell>
        <mxCell id="k10pEqMv1U52HA_rd34u-1" value="&lt;font color=&quot;#ff0000&quot;&gt;N&lt;/font&gt;" style="text;html=1;strokeColor=none;fillColor=none;align=center;verticalAlign=middle;whiteSpace=wrap;rounded=0;" vertex="1" parent="1">
          <mxGeometry x="219" y="400" width="60" height="30" as="geometry" />
        </mxCell>
        <mxCell id="k10pEqMv1U52HA_rd34u-2" value="&lt;font color=&quot;#ff0000&quot;&gt;N&lt;/font&gt;" style="text;html=1;strokeColor=none;fillColor=none;align=center;verticalAlign=middle;whiteSpace=wrap;rounded=0;" vertex="1" parent="1">
          <mxGeometry x="538" y="400" width="60" height="30" as="geometry" />
        </mxCell>
      </root>
    </mxGraphModel>
  </diagram>
</mxfile>
